<svg width="131" height="50" viewBox="0 0 131 50" fill="none" xmlns="http://www.w3.org/2000/svg">
<path d="M0 50V8H12V38H31V50H0Z" fill="#3578BC"/>
<path d="M39 50H31V36H22V22H39V50Z" fill="#1F951A"/>
<path d="M0 0V8H39V0H0Z" fill="#1F951A"/>
<rect x="46" y="22" width="85" height="28" fill="black"/>
<path d="M53.728 44V27.848C53.728 27.592 53.768 27.424 53.848 27.344C53.944 27.248 54.12 27.2 54.376 27.2H55.648V42.608H60.712V43.352C60.712 43.608 60.664 43.784 60.568 43.88C60.488 43.96 60.32 44 60.064 44H53.728ZM69.3207 42.608V43.352C69.3207 43.608 69.2807 43.784 69.2007 43.88C69.1367 43.96 68.9767 44 68.7207 44H65.0967C64.2647 44 63.6727 43.832 63.3207 43.496C62.9847 43.144 62.8167 42.552 62.8167 41.72V34.088C62.8167 33.256 62.9847 32.672 63.3207 32.336C63.6727 31.984 64.2647 31.808 65.0967 31.808H67.7367C68.5687 31.808 69.1527 31.984 69.4887 32.336C69.8407 32.672 70.0167 33.256 70.0167 34.088V36.776C70.0167 37.608 69.8407 38.2 69.4887 38.552C69.1527 38.888 68.5687 39.056 67.7367 39.056H66.2967C66.0407 39.056 65.8727 39.016 65.7927 38.936C65.7287 38.84 65.6967 38.664 65.6967 38.408V37.664H67.0887C67.5847 37.664 67.8967 37.56 68.0247 37.352C68.1527 37.144 68.2167 36.792 68.2167 36.296V34.448C68.2167 33.952 68.1367 33.624 67.9767 33.464C67.8167 33.288 67.4887 33.2 66.9927 33.2H65.9607C65.4327 33.2 65.0967 33.296 64.9527 33.488C64.8087 33.664 64.7367 34.024 64.7367 34.568V41.24C64.7367 41.736 64.8007 42.088 64.9287 42.296C65.0567 42.504 65.3687 42.608 65.8647 42.608H69.3207ZM78.2028 34.568C78.2028 34.072 78.1388 33.72 78.0108 33.512C77.8828 33.304 77.5708 33.2 77.0748 33.2H72.9228C73.0188 32.736 73.1628 32.392 73.3548 32.168C73.5628 31.928 73.8988 31.808 74.3628 31.808H77.8428C78.6748 31.808 79.2588 31.984 79.5948 32.336C79.9468 32.672 80.1228 33.256 80.1228 34.088V44H78.8508C78.5948 44 78.4188 43.96 78.3228 43.88C78.2428 43.784 78.2028 43.608 78.2028 43.352V34.568ZM74.7228 44C73.8908 44 73.2988 43.832 72.9468 43.496C72.6108 43.144 72.4428 42.552 72.4428 41.72V39.08C72.4428 38.248 72.6108 37.664 72.9468 37.328C73.2988 36.976 73.8908 36.8 74.7228 36.8H76.7628C77.2268 36.8 77.5548 36.92 77.7468 37.16C77.9548 37.384 78.1068 37.728 78.2028 38.192H75.4908C74.9948 38.192 74.6828 38.296 74.5548 38.504C74.4268 38.712 74.3628 39.064 74.3628 39.56V41.432C74.3628 41.928 74.4508 42.248 74.6268 42.392C74.8188 42.536 75.1628 42.608 75.6588 42.608H77.2428V43.352C77.2428 43.608 77.2028 43.784 77.1228 43.88C77.0588 43.96 76.8988 44 76.6428 44H74.7228ZM91.1039 27.2V43.352C91.1039 43.608 91.0559 43.784 90.9599 43.88C90.8799 43.96 90.7119 44 90.4559 44H89.1839V27.848C89.1839 27.592 89.2239 27.424 89.3039 27.344C89.3999 27.248 89.5759 27.2 89.8319 27.2H91.1039ZM85.4639 44C84.6319 44 84.0399 43.832 83.6879 43.496C83.3519 43.144 83.1839 42.552 83.1839 41.72V34.088C83.1839 33.256 83.3519 32.672 83.6879 32.336C84.0399 31.984 84.6319 31.808 85.4639 31.808H87.7439C88.2079 31.808 88.5359 31.928 88.7279 32.168C88.9359 32.392 89.0879 32.736 89.1839 33.2H86.2319C85.7359 33.2 85.4239 33.304 85.2959 33.512C85.1679 33.72 85.1039 34.072 85.1039 34.568V41.24C85.1039 41.736 85.1679 42.088 85.2959 42.296C85.4239 42.504 85.7359 42.608 86.2319 42.608H88.2239V43.352C88.2239 43.608 88.1839 43.784 88.1039 43.88C88.0399 43.96 87.8799 44 87.6239 44H85.4639ZM96.4561 44C95.6241 44 95.0321 43.832 94.6801 43.496C94.3441 43.144 94.1761 42.552 94.1761 41.72V34.088C94.1761 33.256 94.3441 32.672 94.6801 32.336C95.0321 31.984 95.6241 31.808 96.4561 31.808H98.7361C99.2001 31.808 99.5281 31.928 99.7201 32.168C99.9281 32.392 100.08 32.736 100.176 33.2H97.2241C96.7281 33.2 96.4161 33.304 96.2881 33.512C96.1601 33.72 96.0961 34.072 96.0961 34.568V41.24C96.0961 41.736 96.1601 42.088 96.2881 42.296C96.4161 42.504 96.7281 42.608 97.2241 42.608H99.2161V43.352C99.2161 43.608 99.1761 43.784 99.0961 43.88C99.0321 43.96 98.8721 44 98.6161 44H96.4561ZM94.7761 48.824C94.5201 48.824 94.3521 48.776 94.2721 48.68C94.2081 48.6 94.1761 48.432 94.1761 48.176V47.432H99.0481C99.2881 47.432 99.4801 47.416 99.6241 47.384C99.7841 47.352 99.9041 47.288 99.9841 47.192C100.064 47.096 100.112 46.96 100.128 46.784C100.16 46.608 100.176 46.368 100.176 46.064V32.456C100.176 32.2 100.216 32.032 100.296 31.952C100.392 31.856 100.568 31.808 100.824 31.808H102.096V46.544C102.096 47.376 101.92 47.96 101.568 48.296C101.232 48.648 100.648 48.824 99.8161 48.824H94.7761ZM112.024 42.608V43.352C112.024 43.608 111.984 43.784 111.904 43.88C111.84 43.96 111.68 44 111.424 44H107.8C106.968 44 106.376 43.832 106.024 43.496C105.688 43.144 105.52 42.552 105.52 41.72V34.088C105.52 33.256 105.688 32.672 106.024 32.336C106.376 31.984 106.968 31.808 107.8 31.808H110.44C111.272 31.808 111.856 31.984 112.192 32.336C112.544 32.672 112.72 33.256 112.72 34.088V36.776C112.72 37.608 112.544 38.2 112.192 38.552C111.856 38.888 111.272 39.056 110.44 39.056H109C108.744 39.056 108.576 39.016 108.496 38.936C108.432 38.84 108.4 38.664 108.4 38.408V37.664H109.792C110.288 37.664 110.6 37.56 110.728 37.352C110.856 37.144 110.92 36.792 110.92 36.296V34.448C110.92 33.952 110.84 33.624 110.68 33.464C110.52 33.288 110.192 33.2 109.696 33.2H108.664C108.136 33.2 107.8 33.296 107.656 33.488C107.512 33.664 107.44 34.024 107.44 34.568V41.24C107.44 41.736 107.504 42.088 107.632 42.296C107.76 42.504 108.072 42.608 108.568 42.608H112.024ZM121.122 31.808C121.954 31.808 122.538 31.984 122.874 32.336C123.226 32.672 123.402 33.256 123.402 34.088V43.352C123.402 43.608 123.354 43.784 123.258 43.88C123.178 43.96 123.01 44 122.754 44H121.482V34.568C121.482 34.072 121.418 33.72 121.29 33.512C121.162 33.304 120.85 33.2 120.354 33.2H117.402V43.352C117.402 43.608 117.354 43.784 117.258 43.88C117.178 43.96 117.01 44 116.754 44H115.482V32.456C115.482 32.2 115.522 32.032 115.602 31.952C115.698 31.856 115.874 31.808 116.13 31.808H117.402V33.2C117.498 32.736 117.642 32.392 117.834 32.168C118.042 31.928 118.378 31.808 118.842 31.808H121.122Z" fill="white"/>
</svg>
