<?xml version="1.0" encoding="iso-8859-1"?>
<!-- Generator: Adobe Illustrator 19.0.0, SVG Export Plug-In . SVG Version: 6.00 Build 0)  -->
<svg version="1.1" id="Capa_1" xmlns="http://www.w3.org/2000/svg" xmlns:xlink="http://www.w3.org/1999/xlink" x="0px" y="0px"
	 viewBox="0 0 512 512" style="enable-background:new 0 0 512 512;" xml:space="preserve">
<path style="fill:#C9C6CA;" d="M396.388,181.677h-66.065V90.839c0-4.561,3.697-8.258,8.258-8.258h49.548
	c4.561,0,8.258,3.697,8.258,8.258v90.838H396.388z"/>
<path style="fill:#C0BCC1;" d="M297.291,181.677h-33.032V41.29c0-4.561,3.697-8.258,8.258-8.258h16.516
	c4.561,0,8.258,3.697,8.258,8.258L297.291,181.677L297.291,181.677z"/>
<path style="fill:#F5DCB4;" d="M454.195,512H57.807c-13.682,0-24.774-11.092-24.774-24.774V206.452
	c0-13.682,11.092-24.774,24.774-24.774h396.387c13.682,0,24.774,11.092,24.774,24.774v280.774
	C478.969,500.908,467.877,512,454.195,512z"/>
<path style="fill:#BEE86E;" d="M156.904,0h-82.58c-4.561,0-8.258,3.697-8.258,8.258v173.419h99.097V8.258
	C165.161,3.697,161.465,0,156.904,0z"/>
<g>
	<path style="fill:#5D5360;" d="M132.13,57.806H99.098c-4.565,0-8.258-3.694-8.258-8.258s3.694-8.258,8.258-8.258h33.032
		c4.565,0,8.258,3.694,8.258,8.258S136.695,57.806,132.13,57.806z"/>
	<path style="fill:#5D5360;" d="M132.13,90.839H99.098c-4.565,0-8.258-3.694-8.258-8.258c0-4.565,3.694-8.258,8.258-8.258h33.032
		c4.565,0,8.258,3.694,8.258,8.258S136.695,90.839,132.13,90.839z"/>
	<path style="fill:#5D5360;" d="M132.13,123.871H99.098c-4.565,0-8.258-3.694-8.258-8.258c0-4.565,3.694-8.258,8.258-8.258h33.032
		c4.565,0,8.258,3.694,8.258,8.258S136.695,123.871,132.13,123.871z"/>
</g>
<path style="fill:#BEEBFF;" d="M322.066,16.516H305.55c-4.561,0-8.258,3.697-8.258,8.258v156.903h33.032V24.774
	C330.324,20.213,326.627,16.516,322.066,16.516z"/>
<path style="fill:#FFDC64;" d="M421.162,66.065h-16.516c-4.561,0-8.258,3.697-8.258,8.258v107.355h33.032V74.323
	C429.42,69.762,425.723,66.065,421.162,66.065z"/>
<g>
	<path style="fill:#5D5360;" d="M378.219,376.565l9.911-13.211v74.324c0,4.565,3.694,8.258,8.258,8.258s8.258-3.694,8.258-8.258
		v-74.324l9.911,13.211c1.621,2.169,4.097,3.306,6.613,3.306c1.726,0,3.46-0.54,4.944-1.653c3.653-2.734,4.395-7.911,1.653-11.556
		l-24.774-33.032c-3.113-4.161-10.097-4.161-13.21,0l-24.774,33.032c-2.742,3.645-2,8.823,1.653,11.556
		C370.307,380.952,375.485,380.226,378.219,376.565z"/>
	<path style="fill:#5D5360;" d="M421.162,462.452h-49.548c-4.565,0-8.258,3.694-8.258,8.258s3.694,8.258,8.258,8.258h49.548
		c4.565,0,8.258-3.694,8.258-8.258S425.727,462.452,421.162,462.452z"/>
</g>
<path style="fill:#EBC9A0;" d="M301.42,272.516h-90.839c-11.402,0-20.645-9.243-20.645-20.645l0,0
	c0-11.402,9.243-20.645,20.645-20.645h90.839c11.402,0,20.645,9.243,20.645,20.645l0,0
	C322.066,263.273,312.822,272.516,301.42,272.516z"/>
<path style="fill:#E1B98C;" d="M210.581,247.742h90.839c8.461,0,15.714,5.102,18.902,12.387c1.108-2.532,1.743-5.318,1.743-8.258
	c0-11.402-9.243-20.645-20.645-20.645h-90.839c-11.402,0-20.645,9.243-20.645,20.645c0,2.941,0.635,5.726,1.743,8.258
	C194.868,252.844,202.12,247.742,210.581,247.742z"/>
<path style="fill:#EBC9A0;" d="M264.259,478.968c-100.338,0-181.677-81.34-181.677-181.677V181.677H57.807
	c-13.682,0-24.774,11.092-24.774,24.774v280.774c0,13.682,11.092,24.774,24.774,24.774h396.387
	c13.682,0,24.774-11.092,24.774-24.774v-8.258H264.259V478.968z"/>
<path style="fill:#AFD755;" d="M99.098,0H74.324c-4.561,0-8.258,3.697-8.258,8.258v173.419H90.84V8.258
	C90.84,3.697,94.537,0,99.098,0z"/>
<path style="fill:#9C969E;" d="M256.001,0H173.42c-4.561,0-8.258,3.697-8.258,8.258v173.419h99.097V8.258
	C264.259,3.697,260.562,0,256.001,0z"/>
<g>
	<path style="fill:#5D5360;" d="M231.227,57.806h-33.032c-4.565,0-8.258-3.694-8.258-8.258s3.694-8.258,8.258-8.258h33.032
		c4.565,0,8.258,3.694,8.258,8.258S235.79,57.806,231.227,57.806z"/>
	<path style="fill:#5D5360;" d="M231.227,90.839h-33.032c-4.565,0-8.258-3.694-8.258-8.258c0-4.565,3.694-8.258,8.258-8.258h33.032
		c4.565,0,8.258,3.694,8.258,8.258S235.79,90.839,231.227,90.839z"/>
	<path style="fill:#5D5360;" d="M231.227,123.871h-33.032c-4.565,0-8.258-3.694-8.258-8.258c0-4.565,3.694-8.258,8.258-8.258h33.032
		c4.565,0,8.258,3.694,8.258,8.258S235.79,123.871,231.227,123.871z"/>
</g>
<path style="fill:#867E88;" d="M198.195,0h-24.774c-4.561,0-8.258,3.697-8.258,8.258v173.419h24.774V8.258
	C189.936,3.697,193.633,0,198.195,0z"/>
<path style="fill:#A5E1FF;" d="M322.066,16.516H305.55c-4.561,0-8.258,3.697-8.258,8.258v156.903h16.516V24.774
	C313.807,20.213,317.505,16.516,322.066,16.516z"/>
<path style="fill:#AEA8AF;" d="M297.291,181.677h-16.516V33.032h8.258c4.561,0,8.258,3.697,8.258,8.258V181.677z"/>
<path style="fill:#FFC850;" d="M421.162,66.065h-16.516c-4.561,0-8.258,3.697-8.258,8.258v107.355h16.516V74.323
	C412.904,69.762,416.601,66.065,421.162,66.065z"/>
<g>
	<rect x="346.841" y="82.58" style="fill:#C0BCC1;" width="16.516" height="99.1"/>
	<path style="fill:#C0BCC1;" d="M396.388,181.677h-16.516V82.581h8.258c4.561,0,8.258,3.697,8.258,8.258V181.677z"/>
</g>
<g>
</g>
<g>
</g>
<g>
</g>
<g>
</g>
<g>
</g>
<g>
</g>
<g>
</g>
<g>
</g>
<g>
</g>
<g>
</g>
<g>
</g>
<g>
</g>
<g>
</g>
<g>
</g>
<g>
</g>
</svg>
