<?xml version="1.0" encoding="iso-8859-1"?>
<!-- Generator: Adobe Illustrator 19.0.0, SVG Export Plug-In . SVG Version: 6.00 Build 0)  -->
<svg version="1.1" id="Capa_1" xmlns="http://www.w3.org/2000/svg" xmlns:xlink="http://www.w3.org/1999/xlink" x="0px" y="0px"
	 viewBox="0 0 512 512" style="enable-background:new 0 0 512 512;" xml:space="preserve">
<path style="fill:#FAD7A5;" d="M449.048,300.581c-0.656-7.876-5.148-14.924-12.01-18.845l-36.977-21.13
	c-4.985-2.849-8.062-8.15-8.062-13.892V224h-48v22.715c0,5.742-3.077,11.043-8.062,13.892l-36.977,21.13
	c-6.862,3.921-11.354,10.969-12.01,18.845L280,384h176L449.048,300.581z"/>
<path style="fill:#6F6571;" d="M449.048,300.581c-0.656-7.876-5.148-14.924-12.01-18.845l-25.489-14.565
	C401.283,279.867,385.599,288,368,288s-33.283-8.133-43.549-20.829l-25.489,14.565c-6.862,3.921-11.354,10.969-12.01,18.845L280,384
	h176L449.048,300.581z"/>
<path style="fill:#F0C891;" d="M344,224v22.715c0,1.224-0.208,2.411-0.477,3.575C350.93,253.91,359.216,256,368,256
	s17.07-2.09,24.477-5.71c-0.269-1.165-0.477-2.351-0.477-3.575V224H344z"/>
<path style="fill:#FFE1B4;" d="M328,160v40c0,22.091,17.909,40,40,40s40-17.909,40-40v-40H328z"/>
<path style="fill:#B48764;" d="M186.733,297.366l-25.889-12.944c-5.42-2.71-8.844-8.25-8.844-14.311V240h-48v30.111
	c0,6.061-3.424,11.601-8.845,14.311l-25.889,12.944C61.136,301.432,56,309.742,56,318.832V384h144v-65.167
	C200,309.742,194.864,301.432,186.733,297.366z"/>
<path style="fill:#C9C6CA;" d="M186.733,297.366l-25.889-12.944c-0.343-0.171-0.602-0.446-0.929-0.64
	C151.429,291.356,140.27,296,128,296s-23.429-4.643-31.916-12.218c-0.327,0.194-0.586,0.468-0.929,0.64l-25.889,12.944
	C61.136,301.432,56,309.742,56,318.832V384h144v-65.167C200,309.742,194.864,301.432,186.733,297.366z"/>
<path style="fill:#966D50;" d="M104,267.288c7.42,3.015,15.511,4.712,24,4.712s16.58-1.697,24-4.712V240h-48V267.288z"/>
<circle style="fill:#6E4B53;" cx="128" cy="136" r="24"/>
<path style="fill:#C39772;" d="M128,256L128,256c-26.51,0-48-21.49-48-48v-16c0-26.51,21.49-48,48-48l0,0c26.51,0,48,21.49,48,48v16
	C176,234.51,154.51,256,128,256z"/>
<path style="fill:#B48764;" d="M112,224v-48c0-12.216,4.602-23.331,12.116-31.804C99.428,146.179,80,166.801,80,192v16
	c0,25.199,19.428,45.821,44.116,47.804C116.601,247.331,112,236.216,112,224z"/>
<path style="fill:#C39772;" d="M504,400H8c-4.422,0-8-3.578-8-8s3.578-8,8-8h496c4.422,0,8,3.578,8,8S508.422,400,504,400z"/>
<g>
	<path style="fill:#DBD9DC;" d="M160.938,384H95.062c-4.035,0-7.438-3.004-7.938-7.008l-6-48C80.527,324.217,84.25,320,89.062,320
		h77.875c4.812,0,8.535,4.217,7.938,8.992l-6,48C168.375,380.996,164.972,384,160.938,384z"/>
	<path style="fill:#DBD9DC;" d="M408,384h-80c-4.035,0-7.438-3.004-7.938-7.008l-6-48C313.465,324.217,317.188,320,322,320h92
		c4.812,0,8.535,4.217,7.938,8.992l-6,48C415.438,380.996,412.034,384,408,384z"/>
</g>
<path style="fill:#5C414B;" d="M128,144c-26.51,0-48,21.49-48,48v8c0,0,16,0,32-16c0,0,24,32,64,16v-8
	C176,165.49,154.51,144,128,144z"/>
<path style="fill:#503441;" d="M112,176c0-12.216,4.602-23.331,12.116-31.804C99.428,146.179,80,166.801,80,192v8c0,0,16,0,32-16
	V176z"/>
<circle style="fill:#FFFFFF;" cx="128" cy="352" r="8"/>
<path style="fill:#FAD7A5;" d="M360,216v-56h-32v40c0,22.091,17.909,40,40,40c0.057,0,0.11-0.017,0.167-0.017
	C363.11,233.284,360,225.039,360,216z"/>
<path style="fill:#D59F63;" d="M416,175.748V168c0-22.091-17.909-40-40-40h-16c-22.091,0-40,17.909-40,40v6.21
	c0,5.517,5.419,9.393,10.628,7.576c3.86-1.346,8.484-3.512,13.374-6.994c2.615-1.862,5.307-4.101,7.998-6.792
	c0,0,20.579,13.719,55.385,15.75C412.026,184.021,416,180.397,416,175.748z"/>
<path style="fill:#CD915A;" d="M376,128h-16c-22.091,0-40,17.909-40,40v6.209c0,5.517,5.419,9.393,10.628,7.576
	c3.859-1.347,8.483-3.512,13.374-6.994c2.615-1.862,5.307-4.101,7.998-6.792v-16C352,138.745,362.745,128,376,128z"/>
<circle style="fill:#FFFFFF;" cx="368" cy="352" r="8"/>
<g>
</g>
<g>
</g>
<g>
</g>
<g>
</g>
<g>
</g>
<g>
</g>
<g>
</g>
<g>
</g>
<g>
</g>
<g>
</g>
<g>
</g>
<g>
</g>
<g>
</g>
<g>
</g>
<g>
</g>
</svg>
